# xmcd
#
# Track frame offsets:
# 150
# 14682
# 31557
# 51916
# 58291
# 72737
# 90463
# 98713
# 116700
# 135252
# 152803
# 161475
# 179136
# 197168
# 215883
# 234605
#
# Disc length: 3420 seconds
#
# Revision: 0
# Processed by: cddbd v1.5.2PL0 Copyright (c) Steve Scherf et al.
# Submitted via: Audion 3.0.2 (http://www.panic.com/audion/)
#
DISCID=eb0d5a10
DTITLE=Jesse Boykins III - The Beauty Created
DYEAR=1900
DGENRE=
TTITLE0=Fever
TTITLE1=Amorous
TTITLE2=Come to My Room
TTITLE3=Whispers
TTITLE4=Shine
TTITLE5=Trust
TTITLE6=Victoria
TTITLE7=Pantyhose
TTITLE8=Itis
TTITLE9=SunStar
TTITLE10=Loopy
TTITLE11=Connected
TTITLE12=Chanel
TTITLE13=Be All Truth
TTITLE14=,
TTITLE15=,
EXTD=
EXTT0=
EXTT1=
EXTT2=
EXTT3=
EXTT4=
EXTT5=
EXTT6=
EXTT7=
EXTT8=
EXTT9=
EXTT10=
EXTT11=
EXTT12=
EXTT13=
EXTT14=
EXTT15=
PLAYORDER=
